<svg width="15" height="15" viewBox="0 0 15 15" fill="none" xmlns="http://www.w3.org/2000/svg">
<g clip-path="url(#clip0_366_243)">
<path d="M2.0382 0.309C2.076 0.217564 2.14007 0.139396 2.22231 0.0843905C2.30455 0.0293854 2.40126 1.60608e-05 2.5002 0L12.5002 0C12.6328 0 12.76 0.0526784 12.8538 0.146447C12.9475 0.240215 13.0002 0.367392 13.0002 0.5V5.5C13.0002 5.63261 12.9475 5.75979 12.8538 5.85355C12.76 5.94732 12.6328 6 12.5002 6H8.7072L12.8542 10.146C12.9243 10.2159 12.9721 10.3051 12.9914 10.4022C13.0108 10.4993 13.0009 10.6 12.963 10.6915C12.9251 10.7829 12.8608 10.8611 12.7785 10.916C12.6961 10.9709 12.5992 11.0002 12.5002 11H8.0002V14.5C8.00038 14.599 7.97115 14.6959 7.91622 14.7783C7.8613 14.8606 7.78314 14.9249 7.69167 14.9628C7.60019 15.0007 7.49952 15.0106 7.40241 14.9912C7.30531 14.9719 7.21613 14.9241 7.1462 14.854L2.1462 9.854C2.0998 9.80748 2.06302 9.75227 2.03797 9.69153C2.01292 9.63079 2.00009 9.5657 2.0002 9.5V5.5C2.0002 5.36739 2.05288 5.24021 2.14665 5.14645C2.24042 5.05268 2.3676 5 2.5002 5H6.2932L2.1462 0.854C2.07632 0.784022 2.02876 0.694892 2.00954 0.597882C1.99031 0.500872 2.00029 0.40034 2.0382 0.309Z" fill="black"/>
</g>
<defs>
<clipPath id="clip0_366_243">
<rect width="15" height="15" fill="white"/>
</clipPath>
</defs>
</svg>
